<svg width="128" height="128" xmlns="http://www.w3.org/2000/svg">

 <g>
  <title>background</title>
  <rect fill="none" id="canvas_background" height="402" width="582" y="-1" x="-1"/>
 </g>
 <g>
  <title>Layer 1</title>
  <path id="svg_1" fill="#028090" d="m114.2,13.8c-2.6,11.2 -9.8,36.4 -26.2,50.5l-2,1.7l0.7,2.5c3.2,11 2.4,15.1 2.1,16c-3.9,3.7 -10.5,8.9 -15.6,11.4c-1,-7.9 -4.9,-12.9 -5.2,-13.1l-1.8,-2.3l-2.7,1.1c-2.3,0.9 -5.9,2.1 -8.5,2.6c-0.8,-2.1 -1.9,-4 -3.3,-5.7c-2,-2.2 -4.8,-4 -7.8,-5c0.4,-2.7 1.7,-6.6 2.6,-8.9l1.1,-2.7l-2.3,-1.8c-0.2,-0.2 -5.3,-4.1 -13.1,-5.2c2.5,-5.2 7.7,-11.7 11.4,-15.6c0.4,-0.1 1.2,-0.3 2.8,-0.3c2.3,0 6.4,0.4 13.3,2.4l2.3,0.6l1.7,-2c14.1,-16.4 39.3,-23.7 50.5,-26.2m5.1,-5.1c0,0 -39,5.9 -58.6,28.7c-6.8,-2 -11.4,-2.6 -14.4,-2.6c-4.1,0 -5.3,1.1 -5.3,1.1s-13.3,14 -14.3,22.7c0.6,0 1.2,-0.1 1.7,-0.1c8.7,0 14.3,4.5 14.3,4.5s-3,7.7 -3,11.8c0,0.5 0,1.1 0,1.7c3.3,0.4 6.8,2.1 8.9,4.5c1.8,2 2.9,4.6 3.3,7.2c0.4,0 0.9,0 1.2,0c0,0 0,0 0,0c4.1,0 11.8,-3 11.8,-3s5.1,6.4 4.5,16c8.7,-1 22.7,-14.3 22.7,-14.3s3.3,-3.3 -1.5,-19.7c22.8,-19.5 28.7,-58.5 28.7,-58.5l0,0z"/>
  <path id="svg_2" fill="#3B97D3" d="m38.4,80.5c2.6,0 5.5,1.3 7.2,3.2c1.7,2 2.7,4.8 2.5,7.2c-0.1,1.5 -0.7,2.7 -1.7,3.5c-1,0.7 -2.5,1.4 -4.5,1.9c0,-0.3 -0.1,-0.5 -0.2,-0.7c-0.4,-1 -1.4,-1.6 -2.6,-1.6c-1,0 -2.1,0.5 -2.8,1.3c-0.3,0.4 -0.6,0.8 -0.8,1.2c-1.4,0.1 -2.7,0.4 -4,1c0.6,-0.9 1.5,-1.7 2.9,-2.6l2.9,-1.8l-2.9,-1.7c-0.3,-0.2 -0.6,-0.3 -0.9,-0.3c1.6,-0.6 2.2,-1.9 2.2,-3.1c-0.1,-1.4 -1.1,-2.6 -2.4,-3c0.8,-1.6 1.8,-2.8 2.3,-3.5c0.7,-0.9 2.1,-1 2.8,-1m0,-2c-1.8,0 -3.4,0.5 -4.5,1.7c-1.6,1.9 -3.4,4.7 -3.7,7.6c0.6,-0.7 1.2,-1 1.8,-1c1.6,0 2.4,2.3 0,2.6c-3.3,0.4 -4.3,3.6 -3.8,6.5c0.9,-1.2 2.9,-2.9 4.3,-2.9c0.3,0 0.5,0.1 0.7,0.2c-4.4,2.8 -5.1,6 -4.7,9.2c1.4,-2.3 4.5,-3.9 7.4,-3.9c0.4,0 0.7,0 1.1,0.1c-0.1,-1.7 1.2,-2.5 2,-2.5c0.8,0 1.3,0.8 -0.1,2.5c4.2,-0.1 7,-1.5 8.6,-2.6c4,-3.2 2.9,-9.9 -0.4,-13.7c-2.1,-2.3 -5.6,-3.8 -8.7,-3.8l0,0z"/>
  <path id="svg_3" fill="#2C3E50" d="m11.2,118.5c-0.4,-0.4 -0.4,-1 0,-1.4l12,-12c0.4,-0.4 1,-0.4 1.4,0c0.4,0.4 0.4,1 0,1.4l-12,12c-0.4,0.4 -1.1,0.4 -1.4,0z"/>
  <path id="svg_4" fill="#2C3E50" d="m22.1,117.5c-0.4,-0.4 -0.4,-1 0,-1.4l6,-6c0.4,-0.4 1,-0.4 1.4,0c0.4,0.4 0.4,1 0,1.4l-6,6c-0.4,0.3 -1,0.3 -1.4,0z"/>
  <path id="svg_5" fill="#2C3E50" d="m12.2,107.6c-0.4,-0.4 -0.4,-1 0,-1.4l6,-6c0.4,-0.4 1,-0.4 1.4,0c0.4,0.4 0.4,1 0,1.4l-6,6c-0.4,0.3 -1,0.3 -1.4,0z"/>
  <path id="svg_6" fill="#3B97D3" d="m79,42.3c3.9,0 7,3.1 7,7s-3.1,7 -7,7s-7,-3.1 -7,-7s3.1,-7 7,-7m0,-2c-5,0 -9,4 -9,9s4,9 9,9s9,-4 9,-9s-4,-9 -9,-9l0,0z"/>
  <path id="svg_7" fill="#3B97D3" d="m64.9,59.8c2,0 3.6,1.6 3.6,3.6c0,2 -1.6,3.6 -3.6,3.6c-2,0 -3.6,-1.6 -3.6,-3.6c0,-2 1.6,-3.6 3.6,-3.6m0,-2c-3.1,0 -5.6,2.5 -5.6,5.6c0,3.1 2.5,5.6 5.6,5.6c3.1,0 5.6,-2.5 5.6,-5.6c0,-3.1 -2.5,-5.6 -5.6,-5.6l0,0z"/>
  <path id="svg_8" fill="#2C3E50" d="m48.5,57.8c-0.2,0 -0.4,-0.1 -0.6,-0.2c-0.4,-0.3 -0.5,-1 -0.2,-1.4l9.8,-12.3c0.3,-0.4 1,-0.5 1.4,-0.2c0.4,0.3 0.5,1 0.2,1.4l-9.8,12.3c-0.2,0.3 -0.5,0.4 -0.8,0.4z"/>
  <path id="svg_9" fill="#2C3E50" d="m70.8,80.5c-0.2,-0.1 -0.4,-0.2 -0.5,-0.4c-0.3,-0.4 -0.2,-1.1 0.2,-1.4l12.7,-9.3c0.4,-0.3 1.1,-0.2 1.4,0.2c0.3,0.4 0.2,1.1 -0.2,1.4l-12.7,9.3c-0.3,0.2 -0.6,0.2 -0.9,0.2z"/>
 </g>
</svg>