<svg width="32" height="32" xmlns="http://www.w3.org/2000/svg">

 <g>
  <title>background</title>
  <rect fill="none" id="canvas_background" height="402" width="582" y="-1" x="-1"/>
 </g>
 <g>
  <title>Layer 1</title>
  <path stroke="#028090" id="svg_1" d="m29.12304,9.96847l0,-7.91852c-0.00981,-1.30135 -1.99074,-1.31403 -2,0.00007c0,-0.00007 0,7.69817 0,7.69817l-0.20728,0c-3.95225,-9.77532 -17.88011,-9.77056 -21.8316,0.0002c-0.00001,-0.0002 -1.09248,-0.0002 -1.09248,-0.0002c-1.64941,0 -2.9917,1.3418 -2.9917,2.99121l0,1.38379c-0.01284,1.91628 1.74061,3.21306 3.57743,2.99113c0.75607,2.97189 2.61648,5.44326 5.09176,7.01559c-2.64752,0.6037 -4.6311,2.97278 -4.6311,5.8009c0,0.55273 0.44775,1 1,1l19.91455,0c0.55225,0 1,-0.44727 1,-1c0,-2.82538 -1.97986,-5.19244 -4.62384,-5.79901c2.47852,-1.57294 4.34039,-4.04608 5.09424,-7.0174c1.83297,0.22124 3.59382,-1.07478 3.57693,-2.99128c0.00003,0.00007 0.00003,-1.38372 0.00003,-1.38372c0.00001,-1.25488 -0.77892,-2.32757 -1.87694,-2.77093zm-14.4513,-5.50226c0.96621,-0.13082 1.96766,-0.13368 2.92688,0.05035c0,0 0,4.18378 0,4.18378c-1.06296,-0.06528 -2.13652,-0.07069 -3.19727,-0.00096c0,-0.00002 0,-4.18275 0,-4.18275c0.09071,-0.01514 0.17896,-0.03791 0.27039,-0.05042zm-1.14636,6.32788c2.78834,-0.32018 5.65946,-0.12988 8.38135,0.75584c1.01473,1.70426 0.2836,5.74691 -1.73113,7.20209c-1.40119,1.22468 -3.20197,1.7657 -5.06575,1.50984c-3.05518,-0.41699 -5.44824,-3.1748 -5.44824,-6.28809c-0.0083,-0.83789 0.1582,-1.65918 0.56934,-2.48633c1.10449,-0.32909 2.18164,-0.55565 3.29443,-0.69335zm-9.53369,4.32031c-0.54688,0 -0.9917,-0.44434 -0.9917,-0.99121l0,-1.38379c0,-0.54688 0.44482,-0.99121 0.9917,-0.99121l0.45703,0c-0.01373,0.06525 -0.01837,0.13196 -0.03101,0.19739c-0.1983,1.04063 -0.27306,2.11313 -0.18383,3.16882c0,0 -0.24219,0 -0.24219,0zm17.00684,10.86231c1.83496,0 3.38184,1.25684 3.82617,2.9541l-17.65869,0c0.44434,-1.69727 1.99072,-2.9541 3.82568,-2.9541l10.00684,0zm-4.99854,-2c-6.55189,0.15031 -11.48722,-6.76096 -9.29716,-12.91266c0.916,-2.73883 3.04154,-4.94592 5.69853,-6.00293l0,3.89453c-0.91443,0.151 -1.81891,0.34052 -2.72705,0.60992c-1.7664,0.55669 -1.93497,2.86324 -2.01281,4.41791c-0.02989,4.54575 3.78292,8.37753 8.31411,8.33695c4.48613,0.09756 8.46463,-3.85517 8.37294,-8.34673c0.00452,-4.21784 -1.51175,-4.50274 -4.75,-5.01844c0.00008,-0.0001 0.00008,-3.89531 0.00008,-3.89531c2.65546,1.05591 4.78278,3.26447 5.69873,6.00464c2.1906,6.14723 -2.73844,13.06152 -9.29737,12.91212zm13,-9.85352c0.00599,0.66115 -0.61193,1.07377 -1.2339,0.99117c0.10101,-1.12385 -0.00815,-2.25967 -0.21485,-3.36617c0.7055,-0.07941 1.43179,0.17656 1.44874,0.99125c0.00001,-0.00004 0.00001,1.38375 0.00001,1.38375z"/>
 </g>
</svg>