<svg width="100" height="100" xmlns="http://www.w3.org/2000/svg">

 <g>
  <title>background</title>
  <rect fill="none" id="canvas_background" height="402" width="582" y="-1" x="-1"/>
 </g>
 <g>
  <title>Layer 1</title>
  <path stroke="#028090" id="svg_1" d="m65.938,85.161l0,-6.643l2.401,-0.369c0.546,-0.084 0.921,-0.595 0.837,-1.141s-0.6,-0.922 -1.141,-0.836l-3.173,0.488l-0.862,0l0,-21.683l-3.053,0c-0.178,-1.962 -0.873,-3.774 -1.948,-5.304l-0.001,-1.195c0,-2.137 -0.751,-4.099 -1.999,-5.644l0,-2.216c0,-1.901 -0.765,-3.626 -2,-4.889l0,-2.611c0,-1.627 -0.793,-3.061 -2,-3.974l0,-4.026c0,-0.61 -0.186,-1.178 -0.5,-1.651l0,-5.224c0,-1.024 -0.62,-1.904 -1.503,-2.29l0.006,-14.952c0.001,-0.553 -0.446,-1.001 -0.998,-1.001l-0.001,0c-0.552,0 -1,0.447 -1,1l-0.006,14.957c-0.88,0.388 -1.497,1.265 -1.497,2.286l0,5.203c0,0.005 0.003,0.01 0.003,0.015c-0.316,0.476 -0.503,1.045 -0.503,1.657l0,4.026c-1.207,0.913 -2,2.347 -2,3.974l0,2.541c0,0.021 0.011,0.037 0.012,0.058c-1.242,1.263 -2.012,2.993 -2.012,4.901l0,2.214c-1.248,1.546 -2,3.509 -2,5.646l0,1.195c-1.075,1.53 -1.771,3.342 -1.949,5.304l-3.049,0l0,21.685l-0.861,0l-3.178,-0.488c-0.54,-0.086 -1.057,0.29 -1.14,0.836c-0.084,0.546 0.29,1.057 0.836,1.141l2.405,0.369l0,6.643l-4.253,0l0,14.837l40.377,0l0,-14.839l-4.25,0zm-5.437,0l0,-5.414l-1.085,-1.086l4.522,0l0,6.5l-3.437,0zm-7.948,-37.348c-0.538,-0.134 -1.078,0.198 -1.207,0.736l-0.82,3.392c-0.175,-0.011 -0.348,-0.026 -0.525,-0.026c-0.18,0 -0.355,0.016 -0.532,0.027l-0.82,-3.393c-0.13,-0.536 -0.672,-0.867 -1.207,-0.736c-0.537,0.13 -0.866,0.67 -0.737,1.207l0.798,3.3c-0.287,0.095 -0.565,0.208 -0.838,0.333l-1.489,-2.093c-0.32,-0.448 -0.943,-0.555 -1.395,-0.234c-0.45,0.319 -0.555,0.944 -0.235,1.395l1.416,1.989c-0.124,0.102 -0.24,0.21 -0.358,0.318l-0.999,-0.734c-0.446,-0.328 -1.071,-0.23 -1.397,0.214c-0.327,0.444 -0.231,1.07 0.213,1.397l0.884,0.649c-0.824,1.256 -1.305,2.752 -1.305,4.36l0,16.747l-1,0l0,-20.675c0,-0.004 0.002,-0.007 0.002,-0.01s-0.001,-0.005 -0.001,-0.008c0.004,-4.958 4.039,-8.991 8.999,-8.991c4.963,0 9,4.037 9,8.999l0,20.685l-1,0l0,-16.747c0,-1.61 -0.482,-3.107 -1.304,-4.364l0.879,-0.646c0.444,-0.327 0.54,-0.953 0.213,-1.397s-0.952,-0.542 -1.397,-0.214l-0.996,0.731c-0.117,-0.108 -0.234,-0.218 -0.358,-0.318l1.413,-1.986c0.319,-0.45 0.215,-1.075 -0.235,-1.395c-0.451,-0.323 -1.074,-0.214 -1.395,0.234l-1.487,2.091c-0.272,-0.126 -0.552,-0.239 -0.84,-0.334l0.798,-3.297c0.129,-0.537 -0.201,-1.077 -0.738,-1.206zm-2.554,-6.335c3.504,0 6.406,2.591 6.913,5.955c-0.755,-0.612 -1.593,-1.125 -2.494,-1.521l0.37,-1.218c0.16,-0.528 -0.138,-1.087 -0.666,-1.248c-0.528,-0.16 -1.087,0.138 -1.248,0.666l-0.354,1.168c-0.496,-0.117 -1.002,-0.205 -1.521,-0.252l0,-2.051c0,-0.553 -0.447,-1 -1,-1c-0.552,0 -1,0.447 -1,1l0,2.051c-0.519,0.047 -1.023,0.135 -1.519,0.252l-0.355,-1.168c-0.16,-0.528 -0.718,-0.827 -1.247,-0.666c-0.528,0.161 -0.826,0.72 -0.666,1.248l0.37,1.217c-0.901,0.397 -1.74,0.909 -2.496,1.522c0.508,-3.365 3.41,-5.955 6.913,-5.955zm12.002,35.183l-1.002,0l0,-19.684l1.002,0l0,19.684zm-12.501,-58.418c0,-0.275 0.225,-0.5 0.5,-0.5c0.276,0 0.5,0.225 0.5,0.5l0,3.927c-0.163,-0.028 -0.328,-0.051 -0.5,-0.051c-0.171,0 -0.336,0.022 -0.5,0.051l0,-3.927zm-0.5,6.875c0,-0.551 0.449,-0.999 1,-0.999c0.552,0 1,0.448 1,0.999l0,3.102c-0.323,-0.065 -0.657,-0.101 -1,-0.101c-0.342,0 -0.677,0.035 -1,0.101l0,-3.102zm1,5.001c1.654,0 3,1.346 3,2.999l0,1.186c-0.622,-0.297 -1.294,-0.503 -2.001,-0.604l0,-1.705c0,-0.553 -0.447,-1 -1,-1c-0.552,0 -1,0.447 -1,1l0,1.705c-0.706,0.102 -1.377,0.308 -1.999,0.604l0,-1.186c0,-1.653 1.346,-2.999 3,-2.999zm0,5.5c2.757,0 5,2.242 5,4.999l0,0.382c-0.49,-0.329 -1.016,-0.609 -1.566,-0.838l0.396,-1.31c0.16,-0.528 -0.138,-1.087 -0.666,-1.247c-0.53,-0.16 -1.087,0.138 -1.248,0.667l-0.407,1.342c-0.178,-0.03 -0.354,-0.063 -0.535,-0.082c0.006,-0.044 0.025,-0.083 0.025,-0.129l0,-2.284c0,-0.553 -0.447,-1 -1,-1c-0.552,0 -1,0.447 -1,1l0,2.284c0,0.046 0.021,0.085 0.026,0.129c-0.181,0.02 -0.356,0.052 -0.534,0.082l-0.407,-1.342c-0.16,-0.529 -0.718,-0.827 -1.248,-0.666c-0.528,0.161 -0.826,0.72 -0.665,1.248l0.396,1.307c-0.551,0.229 -1.077,0.509 -1.567,0.838l0,-0.381c0,-2.757 2.243,-4.999 5,-4.999zm-11.998,21.358l0.998,0l0,19.685l-0.998,0l0,-19.685zm-1.938,21.684l4.521,0l-1.085,1.086l0,5.414l-3.436,0l0,-6.5zm14.436,19.339l-1,0l0,-38.086c0,-0.275 0.225,-0.5 0.5,-0.5c0.276,0 0.5,0.225 0.5,0.5l0,38.086zm17.688,-7.629l0,1.209l-9.689,0l0,2l9.689,0l0,1.21l-9.689,0l0,2l9.689,0l0,1.21l-11.688,0l0,-16.037c0,-0.553 -0.448,-1 -1,-1c-0.553,0 -1,0.447 -1,1l0,16.037l-2,0l0,-38.086c0,-1.379 -1.121,-2.5 -2.5,-2.5c-1.378,0 -2.5,1.121 -2.5,2.5l0,38.086l-2,0l0,-16.037c0,-0.553 -0.447,-1 -1,-1c-0.552,0 -1,0.447 -1,1l0,16.037l-11.688,0l0,-1.21l9.688,0l0,-2l-9.688,0l0,-1.21l9.688,0l0,-2l-9.688,0l0,-1.209l9.688,0l0,-2l-9.688,0l0,-1.21l9.688,0l0,-6.586l2.202,-2.202c0.096,-0.095 0.172,-0.208 0.224,-0.334c0.014,-0.034 0.012,-0.071 0.021,-0.106c0.025,-0.088 0.055,-0.175 0.055,-0.271c0,-0.004 -0.002,-0.006 -0.002,-0.01l0,-0.688l2,0l0,-2l-2,0l0,-1.209l2,0l0,-2l-2,0l0,-1.21l2,0l0,-2l-2,0l0,-1.21l2,0l0,-2l-2,0l0,-1.21l2,0l0,-2l-2,0l0,-1.21l2,0l0,-2l-1.909,0c0.479,-2.833 2.942,-5 5.909,-5s5.431,2.167 5.909,5l-1.909,0l0,2l2,0l0,1.21l-2,0l0,2l2,0l0,1.21l-2,0l0,2l2,0l0,1.21l-2,0l0,2l2,0l0,1.21l-2,0l0,2l2,0l0,1.209l-2,0l0,2l2,0l0,0.698c0,0.097 0.029,0.184 0.055,0.271c0.01,0.035 0.008,0.072 0.021,0.106c0.052,0.126 0.127,0.239 0.224,0.334l2.202,2.202l0,6.586l9.687,0l0,1.21l-9.689,0l0,2l9.688,0z"/>
 </g>
</svg>