<svg width="48" height="48" xmlns="http://www.w3.org/2000/svg">
 <title/>

 <g>
  <title>background</title>
  <rect fill="none" id="canvas_background" height="402" width="582" y="-1" x="-1"/>
 </g>
 <g>
  <title>Layer 1</title>
  <path stroke="#85cb33" id="svg_1" d="m45,0l-42,0a3,3 0 0 0 -3,3l0,42a3,3 0 0 0 3,3l42,0a3,3 0 0 0 3,-3l0,-42a3,3 0 0 0 -3,-3zm-43,3a1,1 0 0 1 1,-1l42,0a1,1 0 0 1 1,1l0,5l-44,0l0,-5zm44,42a1,1 0 0 1 -1,1l-42,0a1,1 0 0 1 -1,-1l0,-35l44,0l0,35z"/>
  <path stroke="#85cb33" id="svg_2" d="m5.71,4.29a1,1 0 0 0 -1.71,0.71a1,1 0 0 0 1.38,0.92a1,1 0 0 0 0.33,-1.63z"/>
  <path stroke="#85cb33" id="svg_3" d="m9.71,4.29a1,1 0 0 0 -1.42,1.42a1,1 0 0 0 1.42,-1.42z"/>
  <path stroke="#85cb33" id="svg_4" d="m13.71,4.29a1,1 0 0 0 -1.42,1.42a1,1 0 0 0 1.42,-1.42z"/>
  <path stroke="#85cb33" id="svg_5" d="m41,4l-16,0a1,1 0 0 0 0,2l16,0a1,1 0 0 0 0,-2z"/>
  <path stroke="#85cb33" id="svg_6" d="m17,40l1,0a1,1 0 0 0 0,-2l-1,0a2,2 0 0 1 -2,-2l0,-2a2,2 0 0 1 2,-2l1,0a1,1 0 0 0 0,-2l-1,0a4,4 0 0 0 -4,4l0,2a4,4 0 0 0 4,4z"/>
  <path stroke="#85cb33" id="svg_7" d="m24,38l-2,0a1,1 0 0 0 0,2l2,0a3,3 0 0 0 0,-6a1,1 0 0 1 0,-2l2,0a1,1 0 0 0 0,-2l-2,0a3,3 0 0 0 0,6a1,1 0 0 1 0,2z"/>
  <path stroke="#85cb33" id="svg_8" d="m32,30a3,3 0 0 0 0,6a1,1 0 0 1 0,2l-2,0a1,1 0 0 0 0,2l2,0a3,3 0 0 0 0,-6a1,1 0 0 1 0,-2l2,0a1,1 0 0 0 0,-2l-2,0z"/>
  <path stroke="#85cb33" id="svg_9" d="m29.71,25.71l4,-4a1,1 0 0 0 0,-1.42l-4,-4a1,1 0 0 0 -1.42,1.42l3.3,3.29l-3.3,3.29a1,1 0 0 0 1.42,1.42z"/>
  <path stroke="#85cb33" id="svg_10" d="m18.29,25.71a1,1 0 0 0 1.42,-1.42l-3.3,-3.29l3.3,-3.29a1,1 0 0 0 -1.42,-1.42l-4,4a1,1 0 0 0 0,1.42l4,4z"/>
  <path stroke="#85cb33" id="svg_11" d="m23.44,25.35l3,-8a1,1 0 0 0 -1.88,-0.7l-3,8a1,1 0 0 0 1.88,0.7z"/>
 </g>
</svg>