<svg width="64" height="64" xmlns="http://www.w3.org/2000/svg">

 <g>
  <title>background</title>
  <rect fill="none" id="canvas_background" height="402" width="582" y="-1" x="-1"/>
 </g>
 <g>
  <title>Layer 1</title>
  <path fill="#f7b32b" id="svg_2" d="m33.215,24.916c0.817,3.481 3.941,6.084 7.668,6.084l6.234,0c3.725,0 6.848,-2.6 7.666,-6.079c2.384,-0.38 4.217,-2.433 4.217,-4.921c0,-4.963 -4.038,-9 -9,-9l-0.236,0c-1.605,-1.263 -3.616,-2 -5.764,-2s-4.159,0.737 -5.764,2l-0.236,0c-4.962,0 -9,4.037 -9,9c0,2.472 1.809,4.517 4.215,4.916zm7.668,4.084c-1.318,0 -2.532,-0.441 -3.514,-1.176c0.647,-1.984 2.121,-3.563 4.047,-4.327c0.52,0.894 1.477,1.503 2.584,1.503c1.106,0 2.063,-0.608 2.584,-1.502c1.926,0.763 3.401,2.342 4.048,4.326c-0.983,0.735 -2.197,1.176 -3.515,1.176l-6.234,0zm2.117,-7c0,-0.552 0.449,-1 1,-1s1,0.448 1,1s-0.449,1 -1,1s-1,-0.448 -1,-1zm14,-2c0,1.311 -0.85,2.416 -2.024,2.823c-0.028,-0.748 -0.144,-1.487 -0.381,-2.199l-1.75,-5.248c-0.255,-0.764 -0.605,-1.475 -1.028,-2.128c2.981,0.803 5.183,3.522 5.183,6.752zm-13,-9c3.158,0 5.95,2.013 6.949,5.009l1.75,5.248c0.2,0.601 0.302,1.227 0.302,1.86c0,1.126 -0.323,2.175 -0.874,3.069c-1.02,-2.185 -2.869,-3.868 -5.175,-4.669c-0.233,-1.424 -1.463,-2.517 -2.952,-2.517c-1.489,0 -2.718,1.093 -2.951,2.517c-2.307,0.801 -4.156,2.485 -5.175,4.669c-0.551,-0.894 -0.874,-1.943 -0.874,-3.069c0,-0.634 0.102,-1.26 0.302,-1.86l1.75,-5.248c0.998,-2.996 3.79,-5.009 6.948,-5.009zm-7.818,2.248c-0.423,0.653 -0.774,1.364 -1.028,2.128l-1.75,5.248c-0.237,0.712 -0.353,1.451 -0.381,2.199c-1.173,-0.407 -2.023,-1.512 -2.023,-2.823c0,-3.23 2.202,-5.949 5.182,-6.752z"/>
  <circle id="svg_3" r="1" cy="16" cx="41"/>
  <circle id="svg_4" r="1" cy="16" cx="47"/>
  <path fill="#6e7e85" id="svg_5" d="m63,20c0,-10.477 -8.523,-19 -19,-19s-19,8.523 -19,19c0,6.306 3.101,11.889 7.844,15.347c-0.598,0.333 -1.244,0.577 -1.927,0.696l-6.993,1.216c-6.33,1.1 -10.924,6.563 -10.924,12.988c0,1.413 0.245,2.778 0.665,4.076c-2.787,-1.231 -4.665,-4.002 -4.665,-7.182c0,-2.813 1.518,-5.428 3.96,-6.823l1.959,-1.119c0.667,-0.382 1.081,-1.095 1.081,-1.864c0,-0.626 -0.272,-1.22 -0.748,-1.628c-0.476,-0.407 -1.102,-0.587 -1.723,-0.492l-0.727,0.111c-6.839,1.052 -11.802,6.838 -11.802,13.756c0,7.675 6.243,13.918 13.917,13.918l6.796,0l1.287,0l21,0l0,-2c0,-2.6 -2.002,-4.718 -4.541,-4.954c1.995,-1.242 3.651,-3.029 4.753,-5.233l0.406,-0.813l0.456,0l0.753,9.795c0.138,1.797 1.659,3.205 3.462,3.205l4.239,0c1.914,0 3.472,-1.558 3.472,-3.472c0,-1.324 -0.735,-2.515 -1.92,-3.106l-1.266,-0.633c-0.502,-0.251 -0.814,-0.756 -0.814,-1.317l0,-11.845c0,-1.874 -0.265,-3.73 -0.758,-5.534c6.354,-3.077 10.758,-9.572 10.758,-17.093zm-19,-17c9.374,0 17,7.626 17,17c0,1.413 -0.192,2.778 -0.518,4.091c-3.491,5.333 -10.092,8.909 -16.482,8.909s-12.991,-3.576 -16.482,-8.909c-0.326,-1.313 -0.518,-2.678 -0.518,-4.091c0,-9.374 7.626,-17 17,-17zm-41,46.082c0,-5.924 4.25,-10.878 10.105,-11.779l0.727,-0.111c0.043,-0.004 0.083,0.004 0.118,0.034c0.033,0.028 0.05,0.065 0.05,0.109c0,0.053 -0.028,0.102 -0.073,0.127l-1.959,1.119c-3.065,1.751 -4.968,5.03 -4.968,8.56c0,4.662 3.217,8.622 7.715,9.616c0.945,1.664 2.269,3.106 3.885,4.244l-3.683,0c-6.571,-0.001 -11.917,-5.348 -11.917,-11.919zm48,-6.455l0,11.845c0,1.324 0.735,2.515 1.92,3.106l1.266,0.633c0.502,0.251 0.814,0.756 0.814,1.317c0,0.812 -0.661,1.472 -1.472,1.472l-4.239,0c-0.765,0 -1.409,-0.597 -1.468,-1.359l-0.895,-11.641l-3.544,0l-0.959,1.919c-1.876,3.751 -5.646,6.081 -9.84,6.081l-1.583,0l0,-1c0,-3.521 -2.612,-6.442 -6,-6.929l0,-4.071l-2,0l0,6l1,0c2.757,0 5,2.243 5,5l0,3l2,0l1.583,0l6.417,0c1.654,0 3,1.346 3,3l-19,0l-0.713,0l-2.03,-1.269c-3.292,-2.057 -5.257,-5.603 -5.257,-9.484c0,-5.45 3.897,-10.084 9.267,-11.018l6.993,-1.216c1.246,-0.217 2.407,-0.733 3.417,-1.477c2.758,1.562 5.935,2.464 9.323,2.464c2.242,0 4.385,-0.411 6.384,-1.127c0.402,1.553 0.616,3.146 0.616,4.754zm-7,-5.627c-5.613,0 -10.585,-2.746 -13.682,-6.953c3.874,3.083 8.833,4.953 13.682,4.953s9.808,-1.87 13.682,-4.953c-3.097,4.207 -8.069,6.953 -13.682,6.953z"/>
  <path fill="#6e7e85" id="svg_6" d="m41.132,7.317l-0.438,-1.951c-0.697,0.156 -1.387,0.364 -2.051,0.619l0.715,1.867c0.574,-0.219 1.171,-0.399 1.774,-0.535z"/>
  <path fill="#6e7e85" id="svg_7" d="m44.824,7.026l0.126,-1.996c-0.71,-0.045 -1.435,-0.04 -2.139,0.016l0.154,1.994c0.612,-0.047 1.244,-0.053 1.859,-0.014z"/>
  <path fill="#6e7e85" id="svg_8" d="m49.131,5.899c-0.672,-0.243 -1.366,-0.44 -2.061,-0.585l-0.406,1.959c0.602,0.124 1.202,0.295 1.784,0.507l0.683,-1.881z"/>
  <path fill="#6e7e85" id="svg_9" d="m20.328,54.419l-1.628,1.162c0.625,0.876 1.398,1.631 2.295,2.244l1.129,-1.65c-0.703,-0.482 -1.308,-1.072 -1.796,-1.756z"/>
  <path fill="#6e7e85" id="svg_10" d="m19,50.247c0,-1.685 0.591,-3.32 1.666,-4.606l-1.535,-1.281c-1.374,1.644 -2.131,3.735 -2.131,5.887c0,1.466 0.351,2.922 1.015,4.211l1.778,-0.916c-0.519,-1.007 -0.793,-2.146 -0.793,-3.295z"/>
  <rect fill="#f3f3f4" id="svg_11" y="52" x="31" width="2" height="2"/>
  <path fill="#6e7e85" id="svg_12" d="m34.715,51.752l0.57,1.916c3.365,-1.001 5.715,-4.154 5.715,-7.668l-2,0c0,2.636 -1.762,5.001 -4.285,5.752z"/>
 </g>
</svg>