<svg width="216.3618" height="259.619" xmlns="http://www.w3.org/2000/svg">

 <g>
  <title>background</title>
  <rect fill="none" id="canvas_background" height="402" width="582" y="-1" x="-1"/>
 </g>
 <g>
  <title>Layer 1</title>
  <path fill="#007ea7" id="svg_2" d="m111.1626,62.3555c1.51,0 3.0005,0.2603 4.4326,0.767c-2.1018,-5.8035 -2.7192,-12.1468 -1.6094,-18.4059l-7.7217,-2.7597l7.1895,-20.1182l-8.5865,-7.6749c0.184,-0.3632 0.3545,-0.7365 0.4951,-1.1299c1.8123,-5.0707 -0.8292,-10.6504 -5.8998,-12.4626c-5.0708,-1.8121 -10.6504,0.8293 -12.4627,5.9s0.8292,10.6504 5.8998,12.4626c2.9961,1.0708 6.1641,0.5772 8.6334,-1.0442l6.0801,5.4343l-6.0591,16.955c-8.9238,-3.1383 -18.6647,0.4987 -23.5359,8.199l32.4641,13.9043c0.2262,-0.0117 0.4519,-0.0268 0.6805,-0.0268zm-16.9172,-47.1885c-2.986,-1.0672 -4.5464,-4.3643 -3.4794,-7.3497s4.3638,-4.5466 7.3497,-3.4794c2.986,1.0672 4.5464,4.3643 3.4795,7.3497c-1.0672,2.9855 -4.3639,4.5465 -7.3498,3.4794z"/>
  <path fill="#007ea7" id="svg_3" d="m72.1693,146.8922l0.0107,-0.0864c0.0244,-1.4741 0.2852,-2.9092 0.7744,-4.2671l20.5173,-56.9811l-25.3509,-10.8579l-19.812,55.4338c-3.702,10.3583 1.744,21.8622 12.1023,25.5643l11.0138,3.9363l0.6527,-11.805c0.0175,-0.3163 0.0536,-0.6269 0.0917,-0.9369z"/>
  <path fill="#007ea7" id="svg_4" d="m117.25,66.9711l-1.9994,-0.7135l7.2343,22.2927l27.7876,10.0055l16.8693,-10.7122l-6.8524,-2.9349c-8.2482,2.703 -17.491,2.4402 -25.9866,-1.4489c-7.6935,-3.5219 -13.5338,-9.4525 -17.0528,-16.4887z"/>
  <path fill="#007ea7" id="svg_5" d="m21.3226,52.9751c6.5898,2.8498 16.9104,-21.0152 10.3208,-23.864c-3.6408,-1.5749 -7.453,-3.1427 -11.3588,-4.6791c-2.6016,2.6351 -5.8011,6.8483 -7.304,12.6801l-2.2273,-0.5748c0.2609,-1.0115 0.5676,-1.9779 0.9092,-2.8979c1.634,-4.4015 4.0767,-7.7504 6.2802,-10.1207c-0.196,-0.0757 -0.3888,-0.1527 -0.5853,-0.2282c-6.7017,-2.5761 -14.2231,0.7692 -16.7988,7.4711c-0.1822,0.4734 -0.3343,0.9515 -0.4582,1.4319c-1.6274,6.3082 17.0023,18.9567 21.2222,20.7816zm0.0414,-4.6723c-1.0639,-0.2745 -1.7039,-1.3595 -1.4294,-2.4234s1.3595,-1.7039 2.4234,-1.4294s1.7039,1.3594 1.4294,2.4233c-0.2746,1.064 -1.3595,1.704 -2.4234,1.4295z"/>
  <path id="svg_6" d="m123.5088,28.7429c1.5122,2.1328 6.1558,1.4383 10.3716,-1.5511c4.2159,-2.9894 6.4076,-7.1417 4.8953,-9.2744c-0.245,-0.3456 -0.5796,-0.6092 -0.9739,-0.8086c-2.0393,-1.0311 -5.865,-0.1453 -9.3977,2.3597c-3.0416,2.1567 -5.0203,4.9155 -5.3237,7.0877c-0.1173,0.8387 0.0071,1.5927 0.4284,2.1867zm8.8432,-3.7064c-2.5791,1.8288 -5.2115,2.5474 -5.8798,1.605c-0.6682,-0.9424 0.881,-3.1888 3.4601,-5.0177c2.5791,-1.8288 5.2115,-2.5474 5.8798,-1.605c0.6682,0.9424 -0.881,3.1889 -3.4601,5.0177z"/>
  <path id="svg_7" d="m115.6683,143.9084c-1.9691,-0.709 -4.1401,0.3124 -4.8492,2.2816c-0.709,1.9691 0.3125,4.1402 2.2817,4.8492c1.969,0.709 4.1401,-0.3125 4.8491,-2.2816c0.709,-1.9691 -0.3125,-4.1402 -2.2816,-4.8492z"/>
  <path id="svg_8" d="m107.9463,133.4754c1.969,0.709 4.1401,-0.3125 4.8491,-2.2816s-0.3125,-4.1401 -2.2816,-4.8492s-4.1401,0.3125 -4.8492,2.2816c-0.7091,1.9691 0.3124,4.1401 2.2817,4.8492z"/>
  <rect id="svg_9" y="101.606" x="109.3615" width="21.6947" transform="matrix(0.3388,-0.9409,0.9409,0.3388,-18.0745,181.6617) " height="4.1684"/>
  <path id="svg_10" d="m145.2784,101.0872c-1.526,-0.5494 -3.2086,0.2422 -3.7582,1.7682c-0.5493,1.5261 0.2422,3.2086 1.7683,3.7581s3.2086,-0.2422 3.7581,-1.7682c0.5495,-1.526 -0.2422,-3.2086 -1.7682,-3.7581z"/>
  <path id="svg_11" d="m141.7265,110.9515c-1.526,-0.5495 -3.2085,0.2422 -3.7581,1.7682s0.2422,3.2086 1.7683,3.7581c1.526,0.5495 3.2085,-0.2422 3.7581,-1.7682s-0.2422,-3.2086 -1.7683,-3.7581z"/>
  <rect id="svg_12" y="92.4669" x="133.1276" width="2.1473" transform="matrix(0.3388,-0.9409,0.9409,0.3388,-3.7887,191.29) " height="11.7474"/>
  <rect id="svg_13" y="96.775" x="131.5764" width="2.1474" transform="matrix(0.3388,-0.9409,0.9409,0.3388,-8.8678,192.6792) " height="11.7474"/>
  <rect id="svg_14" y="101.0833" x="130.0251" width="2.1474" transform="matrix(0.3388,-0.9409,0.9409,0.3388,-13.9466,194.069) " height="11.7473"/>
  <rect id="svg_15" y="105.3914" x="128.4739" width="2.1474" transform="matrix(0.3388,-0.9409,0.9409,0.3388,-19.0257,195.4582) " height="11.7474"/>
  <path fill="#607466" id="svg_16" d="m183.8532,45.7623c-0.8623,-0.6525 -1.7751,-1.2743 -2.7109,-1.881c-2.1489,-9.6662 -8.6368,-18.248 -18.3359,-22.688c-7.4781,-3.4233 -15.5728,-3.7852 -22.8867,-1.6246c0.0481,0.0562 0.1025,0.1064 0.1455,0.1672c1.5123,2.1328 -0.6794,6.285 -4.8953,9.2744s-8.8594,3.6839 -10.3717,1.5511c-0.2067,-0.2914 -0.338,-0.6232 -0.4105,-0.9819c-1.9692,2.2849 -3.6597,4.8753 -4.9781,7.7556c-7.5262,16.4412 -0.2977,35.8713 16.1418,43.3968c6.6102,3.026 13.702,3.6631 20.3098,2.28l-7.7195,-3.3063c-0.6002,0.1851 -1.2091,0.285 -1.8239,0.285c-0.8076,0 -1.5928,-0.1621 -2.332,-0.4824c-2.1279,-0.9199 -25.4258,-14.6357 -22.9375,-24.2842c0.1533,-0.5938 0.3428,-1.1851 0.5625,-1.7578c2.3604,-6.1401 8.3633,-10.2651 14.9385,-10.2651c1.9619,0 3.8926,0.3599 5.7373,1.0688c1.1223,0.4313 2.2345,0.8663 3.3406,1.3028c2.0563,-3.377 6.0629,-4.3968 9.1841,-4.6372c5.0898,-0.3901 11.3203,0.9639 17.5518,3.8164c3.1406,1.438 5.9912,3.1196 8.4746,4.9976c0.0183,0.0139 0.0391,0.0219 0.0576,0.0352c0.1599,4.2822 -0.5542,8.5717 -2.1027,12.5892l1.8374,0.7869c1.6075,-4.1431 2.3844,-8.5606 2.2819,-12.9816c0.549,-0.1281 1.0605,-0.4304 1.4277,-0.915c0.2484,-0.3283 0.3922,-0.6992 0.4583,-1.0787c0.0771,-0.4448 0.0369,-0.8992 -0.1232,-1.3192c-0.1614,-0.4233 -0.4333,-0.8104 -0.8215,-1.104z"/>
  <path fill="#607466" id="svg_17" d="m160.6048,57.8476c-0.0254,1.095 -0.1615,2.3297 -0.453,3.7389c-1.131,5.4648 -4.5139,12.6995 -8.7549,16.2501l38.6936,16.5725l-1.1675,2.7634l-16.2114,-6.9434l-19.4478,12.3495l-9.2351,25.6481l-35.6538,-12.838l9.2375,-25.6548l-7.9276,-24.4294l-72.946,-31.2427c-0.0259,1.4344 -0.2422,3.1079 -0.7553,5.0967c-1.3923,5.3968 -4.5848,11.7101 -8.4093,14.9117l69.4922,29.7634l-21.3436,59.809c-0.4069,1.1403 -0.5882,2.304 -0.5888,3.4495c-0.0372,0.3301 -0.0851,0.6565 -0.1027,0.9925l-2.3872,45.525l-29.7518,23.7821l7.4029,9.0957c0.7017,0.8621 0.5704,2.1416 -0.2917,2.8433s-2.1416,0.5704 -2.8433,-0.2917l-7.4253,-9.1233l-4.1935,3.3521l7.4551,9.16c0.7017,0.8621 0.5704,2.1416 -0.2917,2.8433s-2.1416,0.5704 -2.8433,-0.2917l-7.4777,-9.1876l-3.5856,2.8661c-7.3329,5.8622 -8.5262,16.5599 -2.6645,23.8934c3.3685,4.2141 8.3327,6.4002 13.3385,6.3859c3.7061,-0.0105 7.436,-1.2277 10.5559,-3.7215l49.8079,-39.8141c3.7922,-3.0318 6.1075,-7.5404 6.3614,-12.3888l1.834,-34.977l36.8267,32.7206l13.1068,46.4727c2.118,7.5101 8.962,12.4116 16.4005,12.39c1.5117,-0.0043 3.0502,-0.2123 4.5763,-0.6425c9.0358,-2.5486 14.2953,-11.9401 11.7471,-20.9763l-1.882,-6.673l-12.6986,3.4921c-1.0718,0.2947 -2.1898,-0.3411 -2.4845,-1.4128c-0.2948,-1.0718 0.3409,-2.1899 1.4127,-2.4846l12.6732,-3.485l-1.4573,-5.167l-12.6394,3.4758c-1.0718,0.2947 -2.1898,-0.341 -2.4846,-1.4128c-0.2947,-1.0718 0.3411,-2.1898 1.4128,-2.4846l12.614,-3.4688l-8.9238,-31.641c-0.8818,-3.1274 -2.6418,-5.9359 -5.0708,-8.094l-23.9023,-21.2368l1.8834,-5.2777l-8.113,-2.9213l0.9414,-2.6146l8.1056,2.9186l1.0295,-2.8849l-8.0974,-2.9156l0.9414,-2.6146l8.0901,2.913l13.1104,-36.7389l3.6372,-0.6436l38.4961,-6.8117c0.04,-0.0071 0.0776,-0.0195 0.1174,-0.027c0.2842,-0.0538 0.5657,-0.1179 0.8442,-0.1937c0.0613,-0.0166 0.1239,-0.0302 0.1848,-0.0478c0.3022,-0.0879 0.5999,-0.1893 0.8932,-0.3025c0.1102,-0.0424 0.2172,-0.0903 0.3256,-0.136c0.1875,-0.0793 0.3728,-0.1631 0.5559,-0.2527c0.1179,-0.0577 0.2356,-0.1152 0.351,-0.1769c0.2179,-0.1165 0.4312,-0.2411 0.641,-0.3721c0.0919,-0.0575 0.1831,-0.1152 0.2729,-0.1753c0.2212,-0.1473 0.437,-0.3028 0.6477,-0.4663c0.0798,-0.0622 0.157,-0.1268 0.235,-0.191c0.1857,-0.1525 0.3661,-0.3114 0.5421,-0.4766c0.0591,-0.0555 0.1191,-0.1097 0.1769,-0.1664c0.4601,-0.4514 0.8832,-0.9464 1.2634,-1.4832c0.0457,-0.0644 0.0879,-0.1308 0.1322,-0.1962c0.1329,-0.1967 0.2604,-0.3979 0.3816,-0.6051c0.0566,-0.0964 0.1122,-0.1929 0.1659,-0.2911c0.1,-0.1836 0.1935,-0.3722 0.2841,-0.5634c0.052,-0.1093 0.1069,-0.2168 0.1553,-0.3279c0.0073,-0.0167 0.0161,-0.0322 0.0232,-0.049c0.0312,-0.0728 0.052,-0.1473 0.0815,-0.2205c0.1023,-0.2527 0.2006,-0.5068 0.2839,-0.7674c0.0367,-0.1144 0.064,-0.2296 0.0967,-0.3444c0.0658,-0.231 0.1301,-0.462 0.1808,-0.6981c0.0306,-0.1427 0.0513,-0.2855 0.076,-0.4285c0.0361,-0.2082 0.0728,-0.4158 0.0967,-0.627c0.0195,-0.1702 0.0278,-0.3397 0.0392,-0.5097c0.0123,-0.1854 0.0272,-0.37 0.03,-0.5572c0.0031,-0.1973 -0.0065,-0.393 -0.014,-0.5893c-0.0061,-0.1625 -0.0079,-0.3241 -0.0215,-0.4875c-0.0183,-0.2201 -0.0508,-0.4374 -0.0822,-0.6553c-0.0173,-0.1213 -0.024,-0.2417 -0.0455,-0.3632c-0.0042,-0.024 -0.0117,-0.0464 -0.0161,-0.0703c-0.0372,-0.2017 -0.089,-0.3995 -0.1373,-0.5985c-0.0389,-0.1615 -0.0714,-0.3259 -0.1171,-0.4841c-0.0281,-0.0961 -0.0657,-0.1888 -0.0962,-0.2841c-0.505,-1.5821 -1.3425,-2.9876 -2.427,-4.1478c-0.0405,-0.0435 -0.0762,-0.0909 -0.1176,-0.1339c-0.1727,-0.179 -0.3583,-0.3444 -0.5424,-0.5109c-0.147,-0.1331 -0.2968,-0.2628 -0.4517,-0.3884c-0.207,-0.1679 -0.4146,-0.3353 -0.6332,-0.4877c-0.0714,-0.0497 -0.1494,-0.092 -0.2223,-0.1402c-0.2319,-0.1537 -0.4658,-0.3047 -0.709,-0.4406c-0.0601,-0.0335 -0.1249,-0.0613 -0.1859,-0.0938c-0.2653,-0.1418 -0.5339,-0.2768 -0.8107,-0.3967c-0.0122,-0.0053 -0.0232,-0.0122 -0.0356,-0.0175l-11.0439,-4.7302l-38.0471,-16.2959zm-48.9784,65.4069c3.6755,1.3235 5.5824,5.3762 4.2589,9.0518s-5.3761,5.5825 -9.0519,4.259c-3.6755,-1.3235 -5.5824,-5.3761 -4.2589,-9.0518c1.3237,-3.6757 5.3761,-5.5825 9.0519,-4.259zm0.3617,30.8747c-3.6757,-1.3235 -5.5824,-5.3762 -4.2589,-9.0518s5.376,-5.5825 9.0518,-4.259c3.6757,1.3235 5.5825,5.3762 4.259,9.0518c-1.3236,3.6757 -5.3762,5.5825 -9.0519,4.259z"/>
  <path fill="#007ea7" id="svg_18" d="m145.1757,76.755c6.5898,2.8498 16.9104,-21.0152 10.3208,-23.864c-3.6411,-1.575 -7.4536,-3.143 -11.3599,-4.6796c-2.6012,2.6353 -5.8005,6.8504 -7.3029,12.6805l-2.2273,-0.5748c0.2609,-1.0115 0.5676,-1.9778 0.9092,-2.8979c1.6344,-4.4026 4.0779,-7.7497 6.2817,-10.1201c-0.1967,-0.0759 -0.3899,-0.1531 -0.5868,-0.2288c-6.7018,-2.5761 -14.2231,0.7692 -16.7988,7.4711c-0.1821,0.4734 -0.3342,0.9516 -0.4583,1.4319c-1.6271,6.3081 17.0025,18.9567 21.2223,20.7817zm1.0354,-8.5252c1.064,0.2745 1.7039,1.3595 1.4294,2.4234c-0.2745,1.0639 -1.3595,1.7039 -2.4233,1.4294c-1.064,-0.2745 -1.704,-1.3594 -1.4294,-2.4233c0.2744,-1.064 1.3594,-1.704 2.4233,-1.4295z"/>
 </g>
</svg>