<?xml version="1.0" ?><!DOCTYPE svg  PUBLIC '-//W3C//DTD SVG 1.1//EN'  'http://www.w3.org/Graphics/SVG/1.1/DTD/svg11.dtd'><svg enable-background="new 0 0 100 100" height="100px" id="Layer_1" version="1.1" viewBox="0 0 100 100" width="100px" xml:space="preserve" xmlns="http://www.w3.org/2000/svg" xmlns:xlink="http://www.w3.org/1999/xlink"><path d="M66.758,45.539c0,8.159-6.614,14.772-14.772,14.772  s-14.772-6.614-14.772-14.772s6.614-23.478,14.772-23.478S66.758,37.38,66.758,45.539z" fill="none" stroke="#000000" stroke-miterlimit="10" stroke-width="2"/><path d="M58.715,49.356c0,1.381-3.013,4.667-6.73,4.667  s-6.73-3.286-6.73-4.667c0-1.381,3.013-2.5,6.73-2.5S58.715,47.975,58.715,49.356z" fill="none" stroke="#000000" stroke-miterlimit="10" stroke-width="2"/><circle cx="47.549" cy="38.023" fill="none" r="0.833" stroke="#000000" stroke-miterlimit="10" stroke-width="2"/><circle cx="55.715" cy="38.023" fill="none" r="0.833" stroke="#000000" stroke-miterlimit="10" stroke-width="2"/><path d="  M44.973,25.834c0,0-5.153-5.52-6.403-6.02s-2.875-1.562-9.125,5.625c-0.657,0.876-3.562,3.812-0.312,7.062s9-1.567,9.75-6.502" fill="none" stroke="#000000" stroke-linecap="round" stroke-linejoin="round" stroke-miterlimit="10" stroke-width="2"/><path d="  M38.657,27.018c0,0,2.334,1.492,2.639,4.175" fill="none" stroke="#000000" stroke-linecap="round" stroke-linejoin="round" stroke-miterlimit="10" stroke-width="2"/><path d="  M59.204,25.834c0,0,5.153-5.52,6.403-6.02s2.875-1.562,9.125,5.625c0.657,0.876,3.562,3.812,0.312,7.062s-9-1.567-9.75-6.502" fill="none" stroke="#000000" stroke-linecap="round" stroke-linejoin="round" stroke-miterlimit="10" stroke-width="2"/><path d="  M65.52,27.018c0,0-2.334,1.492-2.639,4.175" fill="none" stroke="#000000" stroke-linecap="round" stroke-linejoin="round" stroke-miterlimit="10" stroke-width="2"/><path d="  M37.361,77.134c0-3.014,3.059-5.458,6.833-5.458c3.774,0,6.833,2.444,6.833,5.458c0,3.014-3.059,3.417-6.833,3.417  C40.421,80.55,37.361,80.148,37.361,77.134z" fill="none" stroke="#000000" stroke-linecap="round" stroke-linejoin="round" stroke-miterlimit="10" stroke-width="2"/><path d="  M52.812,77.134c0-3.014,3.059-5.458,6.833-5.458c3.774,0,6.833,2.444,6.833,5.458c0,3.014-3.059,3.417-6.833,3.417  C55.872,80.55,52.812,80.148,52.812,77.134z" fill="none" stroke="#000000" stroke-linecap="round" stroke-linejoin="round" stroke-miterlimit="10" stroke-width="2"/><path d="  M65.673,79.25c1.06,0.136,2.251,0.174,3.51,0.174c4.43,0,8.021-0.472,8.021-4.01c0-3.344-3.208-6.089-7.299-6.381" fill="none" stroke="#000000" stroke-linecap="round" stroke-linejoin="round" stroke-miterlimit="10" stroke-width="2"/><path d="  M38.154,79.25c-1.06,0.136-2.251,0.174-3.51,0.174c-4.43,0-8.021-0.472-8.021-4.01c0-3.344,3.208-6.089,7.299-6.381h0.522h0.203" fill="none" stroke="#000000" stroke-linecap="round" stroke-linejoin="round" stroke-miterlimit="10" stroke-width="2"/><line fill="none" stroke="#000000" stroke-linecap="round" stroke-linejoin="round" stroke-miterlimit="10" stroke-width="2" x1="51.986" x2="51.986" y1="60.689" y2="76.939"/><line fill="none" stroke="#000000" stroke-linecap="round" stroke-linejoin="round" stroke-miterlimit="10" stroke-width="2" x1="44.195" x2="44.195" y1="58.089" y2="70.939"/><line fill="none" stroke="#000000" stroke-linecap="round" stroke-linejoin="round" stroke-miterlimit="10" stroke-width="2" x1="59.777" x2="59.777" y1="58.089" y2="70.939"/><path d="  M40.151,54.381c0,0-6.769,2.308-6.769,9.308s6.769,9.047,6.769,9.047" fill="none" stroke="#000000" stroke-linecap="round" stroke-linejoin="round" stroke-miterlimit="10" stroke-width="2"/><path d="  M64.696,54.381c0,0,6.769,2.308,6.769,9.308s-6.769,9.047-6.769,9.047" fill="none" stroke="#000000" stroke-linecap="round" stroke-linejoin="round" stroke-miterlimit="10" stroke-width="2"/><path d="  M34.777,58.702c0,0-8.52-3.513-6.27-15.388c0,0,5.101,7.559,9.363,6.592" fill="none" stroke="#000000" stroke-linecap="round" stroke-linejoin="round" stroke-miterlimit="10" stroke-width="2"/></svg>