<svg width="100" height="100" xmlns="http://www.w3.org/2000/svg">

 <g>
  <title>background</title>
  <rect fill="none" id="canvas_background" height="402" width="582" y="-1" x="-1"/>
 </g>
 <g>
  <title>Layer 1</title>
  <path id="svg_1" stroke-width="2" stroke-miterlimit="10" stroke="#bbbe64" fill="none" d="m66.758,45.539c0,8.159 -6.614,14.772 -14.772,14.772s-14.772,-6.614 -14.772,-14.772s6.614,-23.478 14.772,-23.478s14.772,15.319 14.772,23.478z"/>
  <path id="svg_2" stroke-width="2" stroke-miterlimit="10" stroke="#bbbe64" fill="none" d="m58.715,49.356c0,1.381 -3.013,4.667 -6.73,4.667s-6.73,-3.286 -6.73,-4.667c0,-1.381 3.013,-2.5 6.73,-2.5s6.73,1.119 6.73,2.5z"/>
  <circle id="svg_3" stroke-width="2" stroke-miterlimit="10" stroke="#bbbe64" r="0.833" fill="none" cy="38.023" cx="47.549"/>
  <circle id="svg_4" stroke-width="2" stroke-miterlimit="10" stroke="#bbbe64" r="0.833" fill="none" cy="38.023" cx="55.715"/>
  <path id="svg_5" stroke-width="2" stroke-miterlimit="10" stroke-linejoin="round" stroke-linecap="round" stroke="#bbbe64" fill="none" d="m44.973,25.834c0,0 -5.153,-5.52 -6.403,-6.02s-2.875,-1.562 -9.125,5.625c-0.657,0.876 -3.562,3.812 -0.312,7.062s9,-1.567 9.75,-6.502"/>
  <path id="svg_6" stroke-width="2" stroke-miterlimit="10" stroke-linejoin="round" stroke-linecap="round" stroke="#bbbe64" fill="none" d="m38.657,27.018c0,0 2.334,1.492 2.639,4.175"/>
  <path id="svg_7" stroke-width="2" stroke-miterlimit="10" stroke-linejoin="round" stroke-linecap="round" stroke="#bbbe64" fill="none" d="m59.204,25.834c0,0 5.153,-5.52 6.403,-6.02s2.875,-1.562 9.125,5.625c0.657,0.876 3.562,3.812 0.312,7.062s-9,-1.567 -9.75,-6.502"/>
  <path id="svg_8" stroke-width="2" stroke-miterlimit="10" stroke-linejoin="round" stroke-linecap="round" stroke="#bbbe64" fill="none" d="m65.52,27.018c0,0 -2.334,1.492 -2.639,4.175"/>
  <path id="svg_9" stroke-width="2" stroke-miterlimit="10" stroke-linejoin="round" stroke-linecap="round" stroke="#bbbe64" fill="none" d="m37.361,77.134c0,-3.014 3.059,-5.458 6.833,-5.458c3.774,0 6.833,2.444 6.833,5.458c0,3.014 -3.059,3.417 -6.833,3.417c-3.773,-0.001 -6.833,-0.403 -6.833,-3.417z"/>
  <path id="svg_10" stroke-width="2" stroke-miterlimit="10" stroke-linejoin="round" stroke-linecap="round" stroke="#bbbe64" fill="none" d="m52.812,77.134c0,-3.014 3.059,-5.458 6.833,-5.458c3.774,0 6.833,2.444 6.833,5.458c0,3.014 -3.059,3.417 -6.833,3.417c-3.773,-0.001 -6.833,-0.403 -6.833,-3.417z"/>
  <path id="svg_11" stroke-width="2" stroke-miterlimit="10" stroke-linejoin="round" stroke-linecap="round" stroke="#bbbe64" fill="none" d="m65.673,79.25c1.06,0.136 2.251,0.174 3.51,0.174c4.43,0 8.021,-0.472 8.021,-4.01c0,-3.344 -3.208,-6.089 -7.299,-6.381"/>
  <path id="svg_12" stroke-width="2" stroke-miterlimit="10" stroke-linejoin="round" stroke-linecap="round" stroke="#bbbe64" fill="none" d="m38.154,79.25c-1.06,0.136 -2.251,0.174 -3.51,0.174c-4.43,0 -8.021,-0.472 -8.021,-4.01c0,-3.344 3.208,-6.089 7.299,-6.381l0.522,0l0.203,0"/>
  <line id="svg_13" y2="76.939" y1="60.689" x2="51.986" x1="51.986" stroke-width="2" stroke-miterlimit="10" stroke-linejoin="round" stroke-linecap="round" stroke="#bbbe64" fill="none"/>
  <line id="svg_14" y2="70.939" y1="58.089" x2="44.195" x1="44.195" stroke-width="2" stroke-miterlimit="10" stroke-linejoin="round" stroke-linecap="round" stroke="#bbbe64" fill="none"/>
  <line id="svg_15" y2="70.939" y1="58.089" x2="59.777" x1="59.777" stroke-width="2" stroke-miterlimit="10" stroke-linejoin="round" stroke-linecap="round" stroke="#bbbe64" fill="none"/>
  <path id="svg_16" stroke-width="2" stroke-miterlimit="10" stroke-linejoin="round" stroke-linecap="round" stroke="#bbbe64" fill="none" d="m40.151,54.381c0,0 -6.769,2.308 -6.769,9.308s6.769,9.047 6.769,9.047"/>
  <path id="svg_17" stroke-width="2" stroke-miterlimit="10" stroke-linejoin="round" stroke-linecap="round" stroke="#bbbe64" fill="none" d="m64.696,54.381c0,0 6.769,2.308 6.769,9.308s-6.769,9.047 -6.769,9.047"/>
  <path id="svg_18" stroke-width="2" stroke-miterlimit="10" stroke-linejoin="round" stroke-linecap="round" stroke="#bbbe64" fill="none" d="m34.777,58.702c0,0 -8.52,-3.513 -6.27,-15.388c0,0 5.101,7.559 9.363,6.592"/>
 </g>
</svg>