<svg width="100.00000000000001" height="100.00000000000001" xmlns="http://www.w3.org/2000/svg">

 <g>
  <title>background</title>
  <rect fill="none" id="canvas_background" height="402" width="582" y="-1" x="-1"/>
 </g>
 <g>
  <title>Layer 1</title>
  <path stroke="#028090" id="svg_1" d="m68.014,75.76l0,-16.58l-2.795,0l0,-8.166l-2.237,0l0,-4.084l-3.289,0l0,-3.65l-2.475,0l0,-1.814c0,-0.553 -0.448,-1 -1,-1l-0.382,0l0,-3.764l-1.072,0l0,-3.176l-0.948,0l0,-13.86l-0.813,0l0,-0.855c0,-0.172 -0.044,-0.34 -0.128,-0.49l-0.879,-1.566c-0.177,-0.316 -0.511,-0.512 -0.872,-0.512l-0.124,0l0,-15.243c0,-0.553 -0.447,-1 -1,-1c-0.552,0 -1,0.447 -1,1l0,15.242l-0.124,0c-0.361,0 -0.695,0.195 -0.872,0.512l-0.879,1.566c-0.084,0.15 -0.128,0.318 -0.128,0.49l0,0.855l-0.812,0l0,13.859l-0.949,0l0,3.176l-1.072,0l0,3.764l-0.382,0c-0.552,0 -1,0.447 -1,1l0,1.814l-2.475,0l0,3.65l-3.289,0l0,4.084l-2.237,0l0,8.166l-2.794,0l0,16.58l-2.176,0l0,24.242l40.377,0l0,-24.24l-2.174,0zm-2,0l-1.41,0l0,-11.76l-2,0l0,11.76l-0.976,0l0,-11.76l-2,0l0,11.76l-1.41,0l0,-14.58l7.796,0l0,14.58zm-12.178,-37.059l0,1.764l-2.929,0l0,-18.799l0.908,0l0,13.859l0.948,0l0,3.176l1.073,0zm-4.839,-19.631l0.465,-0.828l1.076,0l0.465,0.828l0,0.596l-2.006,0l0,-0.596zm-2.833,19.631l1.072,0l0,-3.176l0.949,0l0,-13.859l0.722,0l0,18.799l-2.743,0l0,-1.764zm-1.382,3.764l10.436,0l0,0.814l-10.436,0l0,-0.814zm-2.474,2.814l15.385,0l0,1.65l-15.385,0l0,-1.65zm-3.289,3.651l21.963,0l0,2.084l-21.963,0l0,-2.084zm-5.032,12.25l7.795,0l0,14.58l-1.41,0l0,-11.76l-2,0l0,11.76l-0.975,0l0,-11.76l-2,0l0,11.76l-1.41,0l0,-14.58zm8.971,36.82l-1.599,0l0,-19l-2,0l0,19l-0.975,0l0,-19l-2,0l0,19l-0.974,0l0,-19l-2,0l0,19l-1.599,0l0,-20.24l0.176,0l10.971,0l0,20.24zm10.924,0l0,-42.037c0,-0.553 -0.447,-1 -1,-1c-0.552,0 -1,0.447 -1,1l0,42.037l-0.975,0l0,-42.037c0,-0.553 -0.447,-1 -1,-1c-0.552,0 -1,0.447 -1,1l0,42.037l-0.975,0l0,-42.037c0,-0.553 -0.448,-1 -1,-1c-0.553,0 -1,0.447 -1,1l0,42.037l-0.975,0l0,-22.24l-1.176,0l0,-16.58l-1.299,0l0,-2.717l-2,0l0,2.717l-3.702,0l0,-6.166l26.438,0l0,6.166l-3.887,0l0,-2.717l-2,0l0,2.717l-1.114,0l0,16.58l-1.175,0l0,22.24l-1.16,0zm14.306,0l-1.598,0l0,-19l-2,0l0,19l-0.975,0l0,-19l-2,0l0,19l-0.975,0l0,-19l-2,0l0,19l-1.598,0l0,-20.24l10.971,0l0.175,0l0,20.24z"/>
 </g>
</svg>